Coordinates
version=1
nRows=31
nColumns=33
inDegrees=yes

Units are S.I. units (second, meters, Newtons, ...)
Angles are in degrees.

endheader
time	ground_thorax_rot_x	ground_thorax_rot_y	ground_thorax_rot_z	ground_thorax_tx	ground_thorax_ty	ground_thorax_tz	clav_prot_r	clav_elev_r	scapula_abduction_r	scapula_elevation_r	scapula_upward_rot_r	scapula_winging_r	shoulder_elv_r	plane_of_elev_r	axial_rot_r	elbow_flexion_r	pro_sup_r	wrist_flex_r	wrist_dev_r	clav_prot_l	clav_elev_l	scapula_abduction_l	scapula_elevation_l	scapula_upward_rot_l	scapula_winging_l	shoulder_elv_l	plane_of_elev_l	axial_rot_l	elbow_flexion_l	pro_sup_l	wrist_flex_l	wrist_dev_l	
3.0600	37.841731	10.303381	12.217313	-217.138742	816.896967	2.275817	15.637077	38.123487	38.871204	45.000000	-45.000000	2072.578280	-2628.777760	148.758156	-114.294550	1104.516684	149.997282	13.300772	5.140373	10.468111	-45.000000	-37.589652	45.000000	-45.010297	-1701.592145	-2085.532925	22.307715	-25.833096	1806.611560	35.389981	5.911762	-23.325793	
3.0700	37.831593	10.338187	12.302522	-216.753460	816.293629	2.337358	15.671448	38.094913	38.836329	45.000000	-45.000000	2072.673991	-2628.816716	148.787834	-113.875635	1104.519451	149.808544	13.378421	5.109485	10.474621	-45.000000	-37.540383	45.000000	-45.007549	-1701.646300	-2085.569299	22.287663	-25.835328	1806.604367	35.500098	5.809896	-23.297131	
3.0800	37.808950	10.361249	12.395400	-216.379357	815.717889	2.379599	15.720346	38.039716	38.789234	45.000000	-45.000000	2072.822282	-2628.802842	148.836017	-113.473770	1104.540387	149.633680	13.465608	5.022404	10.478008	-45.000000	-37.473631	45.000000	-44.995581	-1701.702836	-2085.590086	22.262984	-25.817952	1806.599069	35.616149	5.695684	-23.269704	
3.0900	37.802133	10.380541	12.472622	-215.999345	815.193188	2.385541	15.746369	38.018095	38.764206	45.000000	-45.000000	2072.900941	-2628.817787	148.852291	-113.174185	1104.557432	149.488768	13.516946	5.028180	10.472786	-45.000000	-37.422376	45.000000	-44.993809	-1701.761420	-2085.618436	22.263444	-25.783576	1806.615517	35.751952	5.588477	-23.244873	
3.1000	37.802377	10.385861	12.538318	-215.638701	814.733739	2.352146	15.757841	38.012021	38.752395	45.000000	-45.000000	2072.936589	-2628.846165	148.843345	-112.981181	1104.570923	149.391433	13.544922	5.076633	10.462076	-45.000000	-37.379125	45.000000	-44.993767	-1701.815420	-2085.651245	22.282723	-25.730954	1806.646121	35.904594	5.486161	-23.225426	
3.1100	37.805756	10.381141	12.607490	-215.313533	814.356611	2.278007	15.764342	38.010156	38.743414	45.000000	-45.000000	2072.959203	-2628.859795	148.830003	-112.894490	1104.586166	149.354823	13.554755	5.146245	10.446147	-45.000000	-37.340372	45.000000	-44.994623	-1701.865654	-2085.680097	22.304600	-25.654051	1806.688827	36.068662	5.385280	-23.208980	
3.1200	37.814252	10.351625	12.660854	-215.041305	814.074334	2.168944	15.758443	38.016706	38.745101	45.000000	-45.000000	2072.947166	-2628.884205	148.792046	-112.918932	1104.594218	149.394855	13.547291	5.231984	10.431182	-45.000000	-37.311766	45.000000	-44.993553	-1701.904320	-2085.716284	22.340994	-25.564818	1806.738448	36.238952	5.295929	-23.200467	
3.1300	37.817876	10.311558	12.717142	-214.830901	813.894523	2.035721	15.757682	38.014900	38.740184	45.000000	-45.000000	2072.949995	-2628.882219	148.763814	-113.022481	1104.605521	149.513441	13.534358	5.297168	10.416905	-45.000000	-37.290814	45.000000	-44.989235	-1701.937880	-2085.741064	22.370514	-25.459611	1806.787162	36.403131	5.212508	-23.194948	
3.1400	37.823218	10.248261	12.751948	-214.677571	813.819184	1.890215	15.747947	38.018374	38.746486	45.000000	-45.000000	2072.929288	-2628.890509	148.719187	-113.198187	1104.612179	149.710674	13.511265	5.361707	10.410890	-45.000000	-37.283942	45.000000	-44.981939	-1701.960152	-2085.768399	22.413914	-25.353299	1806.832564	36.552946	5.146641	-23.195896	
3.1500	37.821811	10.182963	12.789588	-214.566698	813.844138	1.742927	15.746770	38.017680	38.748165	45.000000	-45.000000	2072.927516	-2628.868807	148.690513	-113.411127	1104.633676	149.970737	13.484242	5.405472	10.408536	-45.000000	-37.287105	45.000000	-44.971057	-1701.978469	-2085.779334	22.448079	-25.237724	1806.879386	36.673603	5.089626	-23.198056	
3.1600	37.820259	10.099010	12.805215	-214.478323	813.959061	1.600868	15.738776	38.018031	38.767955	45.000000	-45.000000	2072.900603	-2628.860989	148.641795	-113.662390	1104.656900	150.282536	13.450230	5.448353	10.417147	-45.000000	-37.302855	45.000000	-44.948869	-1701.984597	-2085.791583	22.498408	-25.127357	1806.924783	36.758035	5.051141	-23.205408	
3.1700	37.810362	10.026452	12.832076	-214.389909	814.148527	1.467512	15.741605	38.019052	38.782638	45.000000	-45.000000	2072.891267	-2628.830578	148.608037	-113.933225	1104.693144	150.627274	13.414648	5.477869	10.426641	-45.000000	-37.332511	45.000000	-44.916645	-1701.989812	-2085.787155	22.535037	-25.013716	1806.970648	36.794943	5.021881	-23.212055	
3.1800	37.802336	9.943477	12.851013	-214.278768	814.393710	1.343386	15.738788	38.015298	38.815578	45.000000	-45.000000	2072.863753	-2628.813181	148.558250	-114.230227	1104.723320	150.994698	13.377647	5.508784	10.446994	-45.000000	-37.370386	45.000000	-44.871535	-1701.987110	-2085.786659	22.581605	-24.910484	1807.009241	36.780544	5.008514	-23.219398	
3.1900	37.789725	9.875358	12.891031	-214.123139	814.674457	1.227446	15.745896	38.016401	38.839644	45.000000	-45.000000	2072.860389	-2628.771566	148.522407	-114.539297	1104.759639	151.370794	13.342487	5.530003	10.465980	-45.000000	-37.420198	45.000000	-44.813850	-1701.987675	-2085.776225	22.606899	-24.809252	1807.045997	36.709267	5.002517	-23.223185	
3.2000	37.782075	9.797085	12.926258	-213.903451	814.971613	1.118123	15.745046	38.007145	38.880262	45.000000	-44.999999	2072.843935	-2628.745142	148.466987	-114.869100	1104.783015	151.752302	13.308960	5.555166	10.495068	-45.000000	-37.476138	45.000000	-44.740133	-1701.985350	-2085.774823	22.640344	-24.725229	1807.072314	36.585325	5.010172	-23.224983	
3.2100	37.770937	9.736527	12.981211	-213.603118	815.268943	1.014060	15.749815	38.006615	38.906793	45.000000	-44.999999	2072.856542	-2628.696641	148.424178	-115.206477	1104.808571	152.133281	13.278147	5.573337	10.520380	-45.000000	-37.546459	45.000000	-44.651369	-1701.992579	-2085.764524	22.653032	-24.650243	1807.096021	36.411204	5.022427	-23.221339	
3.2200	37.765138	9.674336	13.035700	-213.209471	815.554649	0.914437	15.740473	37.988399	38.939640	45.000000	-44.999998	2072.860026	-2628.654592	148.362333	-115.562599	1104.824692	152.516982	13.247283	5.597940	10.555476	-45.000000	-37.622143	45.000000	-44.548605	-1701.999264	-2085.760225	22.673298	-24.595952	1807.117771	36.195918	5.042475	-23.214333	
3.2300	37.758198	9.627966	13.103681	-212.713791	815.821957	0.819077	15.724749	37.976886	38.959265	45.000000	-44.999996	2072.889751	-2628.588459	148.310255	-115.929376	1104.845053	152.904054	13.216535	5.618376	10.585855	-45.000000	-37.709861	45.000000	-44.428752	-1702.015871	-2085.745823	22.677372	-24.555434	1807.147271	35.944807	5.063346	-23.202876	
3.2400	37.756428	9.581065	13.166977	-212.111158	816.069046	0.728402	15.693562	37.951830	38.984983	45.000000	-44.999992	2072.916687	-2628.523803	148.245655	-116.316871	1104.858127	153.300940	13.183639	5.644419	10.621176	-45.000000	-37.804268	45.000000	-44.287752	-1702.036058	-2085.733598	22.687017	-24.536613	1807.179220	35.668437	5.088171	-23.188128	
3.2500	37.754573	9.545958	13.236722	-211.399480	816.298428	0.643278	15.657896	37.938726	39.004751	45.000000	-44.999987	2072.966980	-2628.438116	148.190792	-116.718218	1104.872217	153.711200	13.148921	5.666834	10.649215	-45.000000	-37.911016	45.000000	-44.118241	-1702.067988	-2085.711320	22.682197	-24.530641	1807.217171	35.373107	5.112275	-23.169377	
3.2600	37.760752	9.504803	13.296247	-210.578799	816.515887	0.564832	15.616907	37.917322	39.044433	45.000000	-44.999976	2073.008309	-2628.358163	148.127097	-117.140446	1104.877117	154.142523	13.110631	5.693140	10.678834	-45.000000	-38.018458	45.000000	-43.912011	-1702.101438	-2085.692175	22.685080	-24.538455	1807.261805	35.065610	5.138173	-23.148790	
3.2700	37.771291	9.456949	13.349468	-209.650127	816.729282	0.494308	15.580839	37.908257	39.107647	45.000000	-44.999957	2073.055516	-2628.276065	148.070044	-117.577326	1104.880451	154.600437	13.069052	5.715447	10.697591	-45.000000	-38.127694	45.000000	-43.658480	-1702.139710	-2085.667382	22.681929	-24.549693	1807.315443	34.747005	5.164670	-23.127472	
3.2800	37.792428	9.386405	13.381158	-208.614950	816.947245	0.433033	15.563620	37.902111	39.215741	45.000000	-44.999923	2073.080116	-2628.218972	148.001439	-118.030571	1104.875863	155.093598	13.023313	5.736839	10.710293	-45.000000	-38.225147	45.000000	-43.341276	-1702.175036	-2085.651510	22.691344	-24.560865	1807.373786	34.415850	5.194660	-23.105912	
3.2900	37.821320	9.296941	13.394757	-207.474537	817.178210	0.382380	15.568163	37.906507	39.360159	45.000000	-44.999861	2073.088666	-2628.176547	147.921562	-118.496537	1104.867341	155.627968	12.972972	5.753625	10.710206	-45.000000	-38.313253	45.000000	-42.961296	-1702.211503	-2085.639646	22.707893	-24.565029	1807.433870	34.067465	5.230026	-23.084638	
3.3000	37.859528	9.189204	13.385450	-206.230116	817.429431	0.343791	15.595965	37.913477	39.538216	45.000000	-44.999752	2073.072796	-2628.151931	147.823236	-118.976665	1104.852673	156.208255	12.916704	5.767705	10.702501	-45.000000	-38.394423	45.000000	-42.518157	-1702.247350	-2085.638422	22.739694	-24.557561	1807.494045	33.695844	5.274801	-23.064907	
3.3100	37.899645	9.076993	13.363651	-204.882803	817.706389	0.318671	15.631697	37.923008	39.728813	45.000000	-44.999555	2073.052749	-2628.125598	147.715890	-119.472409	1104.838134	156.833264	12.852847	5.777881	10.687017	-45.000000	-38.484243	45.000000	-42.031635	-1702.288787	-2085.637197	22.777271	-24.532781	1807.552585	33.296428	5.333236	-23.048565	
3.3200	37.940242	8.966946	13.330955	-203.433866	818.012285	0.308233	15.677070	37.935758	39.923142	45.000000	-44.999203	2073.031506	-2628.096229	147.600677	-119.985176	1104.823194	157.499354	12.780710	5.783836	10.669903	-45.000000	-38.589848	45.000000	-41.500971	-1702.336334	-2085.640143	22.820816	-24.483551	1807.606551	32.864653	5.408636	-23.035526	
3.3300	37.978064	8.866382	13.293023	-201.884591	818.347836	0.313231	15.723966	37.950199	40.107800	45.000000	-44.998573	2073.017510	-2628.049386	147.479800	-120.516656	1104.810924	158.201651	12.699324	5.785371	10.652442	-45.000000	-38.724735	45.000000	-40.936869	-1702.391877	-2085.644024	22.863906	-24.406509	1807.654812	32.396932	5.504974	-23.026875	
3.3400	38.014634	8.771874	13.246317	-200.236431	818.711082	0.333726	15.776105	37.970103	40.289708	45.000000	-44.997442	2073.009497	-2627.989944	147.358404	-121.065997	1104.801659	158.937805	12.609555	5.780272	10.636742	-45.000000	-38.889408	45.000000	-40.331981	-1702.453390	-2085.653477	22.906069	-24.300094	1807.700441	31.887259	5.624404	-23.022604	
3.3500	38.047637	8.683145	13.196641	-198.490703	819.097417	0.368911	15.825619	37.991973	40.469793	45.000000	-44.995422	2073.010740	-2627.917505	147.238453	-121.633718	1104.796172	159.706384	12.511601	5.769479	10.623399	-45.000000	-39.080683	45.000000	-39.695459	-1702.517889	-2085.665734	22.945287	-24.167552	1807.744187	31.332413	5.769149	-23.022046	
3.3600	38.079615	8.591269	13.136584	-196.648322	819.499682	0.417098	15.888240	38.023791	40.659648	45.000000	-44.991789	2073.013878	-2627.846052	147.117432	-122.211592	1104.793114	160.511151	12.407354	5.750800	10.606320	-45.000000	-39.288331	45.000000	-39.014283	-1702.585560	-2085.686230	22.984336	-24.011348	1807.784619	30.725904	5.939803	-23.022474	
